<svg width="40" height="38" viewBox="0 0 40 38" fill="none" xmlns="http://www.w3.org/2000/svg">
    <path
        d="M0 36.4339V0.798035H13.2611C15.8553 0.798035 18.2446 1.44658 20.4292 2.74367C22.6479 4.04077 24.4058 5.79867 25.7029 8.01738C27 10.202 27.6486 12.5913 27.6486 15.1855V22.0465C27.6486 24.6406 27 27.0471 25.7029 29.2658C24.4058 31.4504 22.6479 33.1912 20.4292 34.4883C18.2446 35.7854 15.8553 36.4339 13.2611 36.4339H0Z"
        fill="white" />
    <path
        d="M30.6814 32.5427C30.6814 31.2797 31.1252 30.2045 32.0126 29.317C32.9343 28.3954 34.0436 27.9346 35.3407 27.9346C36.6378 27.9346 37.7301 28.3954 38.6176 29.317C39.5392 30.2045 40 31.2797 40 32.5427C40 33.8056 39.5392 34.8979 38.6176 35.8195C37.7301 36.7412 36.6378 37.202 35.3407 37.202C34.0778 37.202 32.9855 36.7412 32.0638 35.8195C31.1422 34.8979 30.6814 33.8056 30.6814 32.5427Z"
        fill="white" />
</svg>